<svg data-v-423bf9ae="" xmlns="http://www.w3.org/2000/svg" viewBox="0 0 381 90" class="iconLeft"><!----><!----><!----><g data-v-423bf9ae="" id="20489268-3a40-4715-b53c-078351c3858d" fill="#000000" transform="matrix(4.535147222295708,0,0,4.535147222295708,105.15138880264215,2.3015872785689524)"><path d="M1.51 13.02L1.51 3.78L4.80 3.78L4.80 3.78Q6.40 3.78 7.17 4.44L7.17 4.44L7.17 4.44Q7.95 5.11 7.95 6.33L7.95 6.33L7.95 6.33Q7.95 7.06 7.54 7.62L7.54 7.62L7.54 7.62Q7.13 8.18 6.40 8.32L6.40 8.32L6.40 8.33L6.40 8.33Q7.21 8.48 7.70 9.07L7.70 9.07L7.70 9.07Q8.19 9.66 8.19 10.43L8.19 10.43L8.19 10.43Q8.19 11.62 7.29 12.32L7.29 12.32L7.29 12.32Q6.40 13.02 4.79 13.02L4.79 13.02L1.51 13.02ZM2.63 7.84L4.82 7.84L4.82 7.84Q5.81 7.84 6.29 7.47L6.29 7.47L6.29 7.47Q6.78 7.10 6.78 6.33L6.78 6.33L6.78 6.33Q6.78 4.83 4.82 4.83L4.82 4.83L2.63 4.83L2.63 7.84ZM2.63 11.97L5.05 11.97L5.05 11.97Q6.03 11.97 6.52 11.57L6.52 11.57L6.52 11.57Q7.01 11.17 7.01 10.43L7.01 10.43L7.01 10.43Q7.01 9.69 6.52 9.29L6.52 9.29L6.52 9.29Q6.03 8.89 5.05 8.89L5.05 8.89L2.63 8.89L2.63 11.97ZM16.18 12.21L16.18 12.21Q16.46 12.21 16.74 12.14L16.74 12.14L16.67 13.02L16.67 13.02Q16.28 13.16 15.83 13.16L15.83 13.16L15.83 13.16Q15.29 13.16 14.97 12.92L14.97 12.92L14.97 12.92Q14.66 12.68 14.57 12.12L14.57 12.12L14.57 12.12Q14.25 12.61 13.63 12.89L13.63 12.89L13.63 12.89Q13.01 13.16 12.32 13.16L12.32 13.16L12.32 13.16Q11.28 13.16 10.61 12.68L10.61 12.68L10.61 12.68Q9.94 12.19 9.94 11.28L9.94 11.28L9.94 11.28Q9.94 10.49 10.64 9.90L10.64 9.90L10.64 9.90Q11.34 9.32 12.67 9.10L12.67 9.10L14.53 8.79L14.53 8.40L14.53 8.40Q14.53 7.70 14.10 7.28L14.10 7.28L14.10 7.28Q13.66 6.86 12.89 6.86L12.89 6.86L12.89 6.86Q12.19 6.86 11.68 7.20L11.68 7.20L11.68 7.20Q11.17 7.53 10.89 8.19L10.89 8.19L10.07 7.59L10.07 7.59Q10.35 6.80 11.11 6.34L11.11 6.34L11.11 6.34Q11.87 5.88 12.89 5.88L12.89 5.88L12.89 5.88Q14.14 5.88 14.90 6.48L14.90 6.48L14.90 6.48Q15.65 7.08 15.65 8.26L15.65 8.26L15.65 11.70L15.65 11.70Q15.65 11.96 15.78 12.08L15.78 12.08L15.78 12.08Q15.90 12.21 16.18 12.21L16.18 12.21ZM12.38 12.18L12.38 12.18Q13.26 12.18 13.89 11.76L13.89 11.76L13.89 11.76Q14.53 11.34 14.53 10.67L14.53 10.67L14.53 9.70L12.96 10.00L12.96 10.00Q12.03 10.16 11.56 10.48L11.56 10.48L11.56 10.48Q11.10 10.79 11.10 11.28L11.10 11.28L11.10 11.28Q11.10 11.72 11.44 11.95L11.44 11.95L11.44 11.95Q11.77 12.18 12.38 12.18L12.38 12.18ZM23.46 2.80L24.58 2.80L24.58 13.02L23.60 13.02L23.53 11.80L23.53 11.80Q23.23 12.42 22.59 12.79L22.59 12.79L22.59 12.79Q21.95 13.16 21.14 13.16L21.14 13.16L21.14 13.16Q19.67 13.16 18.81 12.19L18.81 12.19L18.81 12.19Q17.95 11.21 17.95 9.52L17.95 9.52L17.95 9.52Q17.95 7.83 18.81 6.85L18.81 6.85L18.81 6.85Q19.67 5.88 21.14 5.88L21.14 5.88L21.14 5.88Q21.91 5.88 22.52 6.22L22.52 6.22L22.52 6.22Q23.13 6.55 23.46 7.11L23.46 7.11L23.46 2.80ZM21.27 12.18L21.27 12.18Q22.27 12.18 22.87 11.48L22.87 11.48L22.87 11.48Q23.46 10.78 23.46 9.60L23.46 9.60L23.46 9.44L23.46 9.44Q23.46 8.26 22.87 7.56L22.87 7.56L22.87 7.56Q22.27 6.86 21.27 6.86L21.27 6.86L21.27 6.86Q20.24 6.86 19.66 7.58L19.66 7.58L19.66 7.58Q19.07 8.30 19.07 9.52L19.07 9.52L19.07 9.52Q19.07 10.74 19.66 11.46L19.66 11.46L19.66 11.46Q20.24 12.18 21.27 12.18L21.27 12.18ZM31.09 12.12L31.09 12.12Q32.09 12.12 32.65 12.57L32.65 12.57L32.65 12.57Q33.21 13.02 33.21 13.79L33.21 13.79L33.21 13.79Q33.21 14.46 32.75 14.97L32.75 14.97L32.75 14.97Q32.28 15.48 31.49 15.76L31.49 15.76L31.49 15.76Q30.70 16.03 29.75 16.03L29.75 16.03L29.75 16.03Q28.15 16.03 27.34 15.52L27.34 15.52L27.34 15.52Q26.53 15.01 26.53 14.18L26.53 14.18L26.53 14.18Q26.53 13.71 26.86 13.34L26.86 13.34L26.86 13.34Q27.19 12.98 27.76 12.82L27.76 12.82L27.76 12.82Q27.33 12.61 27.07 12.29L27.07 12.29L27.07 12.29Q26.81 11.97 26.81 11.54L26.81 11.54L26.81 11.54Q26.81 11.02 27.09 10.67L27.09 10.67L27.09 10.67Q27.37 10.33 27.86 10.16L27.86 10.16L27.86 10.16Q27.36 9.86 27.10 9.36L27.10 9.36L27.10 9.36Q26.84 8.86 26.84 8.25L26.84 8.25L26.84 8.25Q26.84 7.56 27.20 7.02L27.20 7.02L27.20 7.02Q27.57 6.48 28.22 6.18L28.22 6.18L28.22 6.18Q28.88 5.88 29.71 5.88L29.71 5.88L29.71 5.88Q30.49 5.88 31.14 6.16L31.14 6.16L31.14 6.16Q31.53 4.73 33.11 4.73L33.11 4.73L33.36 5.71L33.36 5.71Q31.99 5.71 31.70 6.48L31.70 6.48L31.70 6.48Q32.12 6.80 32.35 7.25L32.35 7.25L32.35 7.25Q32.58 7.70 32.58 8.25L32.58 8.25L32.58 8.25Q32.58 8.93 32.21 9.47L32.21 9.47L32.21 9.47Q31.85 10.01 31.19 10.31L31.19 10.31L31.19 10.31Q30.53 10.61 29.71 10.61L29.71 10.61L29.71 10.61Q29.09 10.61 28.63 10.49L28.63 10.49L28.63 10.49Q28.21 10.58 28.03 10.79L28.03 10.79L28.03 10.79Q27.85 11.00 27.85 11.37L27.85 11.37L27.85 11.37Q27.85 11.73 28.10 11.93L28.10 11.93L28.10 11.93Q28.35 12.12 28.77 12.12L28.77 12.12L31.09 12.12ZM29.71 6.79L29.71 6.79Q28.98 6.79 28.49 7.20L28.49 7.20L28.49 7.20Q28 7.60 28 8.25L28 8.25L28 8.25Q28 8.89 28.49 9.30L28.49 9.30L28.49 9.30Q28.98 9.70 29.71 9.70L29.71 9.70L29.71 9.70Q30.44 9.70 30.93 9.30L30.93 9.30L30.93 9.30Q31.42 8.89 31.42 8.25L31.42 8.25L31.42 8.25Q31.42 7.60 30.93 7.20L30.93 7.20L30.93 7.20Q30.44 6.79 29.71 6.79L29.71 6.79ZM29.88 15.09L29.88 15.09Q30.94 15.09 31.56 14.75L31.56 14.75L31.56 14.75Q32.17 14.41 32.17 13.92L32.17 13.92L32.17 13.92Q32.17 13.51 31.86 13.30L31.86 13.30L31.86 13.30Q31.54 13.09 30.79 13.09L30.79 13.09L28.91 13.09L28.91 13.09Q28.27 13.09 27.92 13.32L27.92 13.32L27.92 13.32Q27.57 13.55 27.57 13.96L27.57 13.96L27.57 13.96Q27.57 14.49 28.15 14.79L28.15 14.79L28.15 14.79Q28.74 15.09 29.88 15.09L29.88 15.09ZM40.88 9.16L40.88 9.16Q40.88 9.55 40.82 9.94L40.82 9.94L35.55 9.94L35.55 9.94Q35.64 11.00 36.25 11.59L36.25 11.59L36.25 11.59Q36.86 12.18 37.83 12.18L37.83 12.18L37.83 12.18Q38.60 12.18 39.11 11.91L39.11 11.91L39.11 11.91Q39.62 11.65 39.80 11.14L39.80 11.14L40.74 11.63L40.74 11.63Q40.32 12.38 39.62 12.77L39.62 12.77L39.62 12.77Q38.92 13.16 37.83 13.16L37.83 13.16L37.83 13.16Q36.25 13.16 35.34 12.19L35.34 12.19L35.34 12.19Q34.44 11.23 34.44 9.52L34.44 9.52L34.44 9.52Q34.44 7.81 35.30 6.85L35.30 6.85L35.30 6.85Q36.16 5.88 37.74 5.88L37.74 5.88L37.74 5.88Q38.72 5.88 39.44 6.31L39.44 6.31L39.44 6.31Q40.15 6.75 40.52 7.49L40.52 7.49L40.52 7.49Q40.88 8.23 40.88 9.16L40.88 9.16ZM37.74 6.86L37.74 6.86Q36.82 6.86 36.25 7.41L36.25 7.41L36.25 7.41Q35.69 7.95 35.56 8.95L35.56 8.95L39.80 8.95L39.80 8.95Q39.69 7.97 39.16 7.41L39.16 7.41L39.16 7.41Q38.63 6.86 37.74 6.86L37.74 6.86ZM46.31 5.88L46.31 5.88Q46.82 5.88 47.08 6.02L47.08 6.02L46.86 7.11L46.86 7.11Q46.52 6.93 45.98 6.93L45.98 6.93L45.98 6.93Q45.53 6.93 45.10 7.19L45.10 7.19L45.10 7.19Q44.67 7.45 44.40 7.97L44.40 7.97L44.40 7.97Q44.13 8.50 44.13 9.24L44.13 9.24L44.13 13.02L43.01 13.02L43.01 6.02L43.92 6.02L44.07 7.17L44.07 7.17Q44.66 5.88 46.31 5.88L46.31 5.88ZM49.28 4.68L49.28 4.68Q48.90 4.68 48.67 4.44L48.67 4.44L48.67 4.44Q48.44 4.21 48.44 3.84L48.44 3.84L48.44 3.84Q48.44 3.46 48.67 3.23L48.67 3.23L48.67 3.23Q48.90 3.00 49.28 3.00L49.28 3.00L49.28 3.00Q49.66 3.00 49.89 3.23L49.89 3.23L49.89 3.23Q50.12 3.46 50.12 3.84L50.12 3.84L50.12 3.84Q50.12 4.21 49.89 4.44L49.89 4.44L49.89 4.44Q49.66 4.68 49.28 4.68L49.28 4.68ZM49.84 6.02L49.84 13.02L48.72 13.02L48.72 6.02L49.84 6.02ZM56.38 3.64L56.38 3.64Q57.68 3.64 58.65 4.22L58.65 4.22L58.65 4.22Q59.61 4.80 60.14 5.87L60.14 5.87L60.14 5.87Q60.66 6.94 60.66 8.40L60.66 8.40L60.66 8.40Q60.66 9.86 60.14 10.93L60.14 10.93L60.14 10.93Q59.61 12.00 58.65 12.58L58.65 12.58L58.65 12.58Q57.68 13.16 56.38 13.16L56.38 13.16L56.38 13.16Q55.08 13.16 54.11 12.58L54.11 12.58L54.11 12.58Q53.14 12.00 52.62 10.93L52.62 10.93L52.62 10.93Q52.09 9.86 52.09 8.40L52.09 8.40L52.09 8.40Q52.09 6.94 52.62 5.87L52.62 5.87L52.62 5.87Q53.14 4.80 54.11 4.22L54.11 4.22L54.11 4.22Q55.08 3.64 56.38 3.64L56.38 3.64ZM56.38 4.69L56.38 4.69Q54.94 4.69 54.10 5.68L54.10 5.68L54.10 5.68Q53.27 6.66 53.27 8.40L53.27 8.40L53.27 8.40Q53.27 10.14 54.10 11.12L54.10 11.12L54.10 11.12Q54.94 12.11 56.38 12.11L56.38 12.11L56.38 12.11Q57.82 12.11 58.65 11.12L58.65 11.12L58.65 11.12Q59.49 10.14 59.49 8.40L59.49 8.40L59.49 8.40Q59.49 6.66 58.65 5.68L58.65 5.68L58.65 5.68Q57.82 4.69 56.38 4.69L56.38 4.69Z"></path></g><defs data-v-423bf9ae=""><linearGradient data-v-423bf9ae="" gradientTransform="rotate(25)" id="9d07650d-641b-4439-8549-ae4d2d31e524" x1="0%" y1="0%" x2="100%" y2="0%"><stop data-v-423bf9ae="" offset="0%" style="stop-color: rgb(65, 226, 150); stop-opacity: 1;"></stop><stop data-v-423bf9ae="" offset="100%" style="stop-color: rgb(0, 196, 238); stop-opacity: 1;"></stop></linearGradient></defs><g data-v-423bf9ae="" id="50137650-1a78-471e-84b4-9ec3aa93f329" transform="matrix(1.0222161795263005,0,0,1.0222161795263005,-5.1108089763150275,-5.132808282478386)" stroke="none" fill="url(#9d07650d-641b-4439-8549-ae4d2d31e524)"><path d="M92.903 52.459l-.213-.111h-4.301a17.839 17.839 0 0 0-3.503-5.719v-4.547c0-3.287-.467-6.507-1.353-9.594 5.589-1.667 9.678-6.847 9.678-12.971 0-7.466-6.073-13.539-13.539-13.539-4.835 0-9.074 2.556-11.47 6.379a34.289 34.289 0 0 0-8.679-3.823l-.085-.021c-6.086-1.741-12.76-1.747-18.948.021a34.23 34.23 0 0 0-8.692 3.823c-2.395-3.823-6.634-6.379-11.47-6.379-7.466 0-13.539 6.073-13.539 13.539 0 6.13 4.097 11.313 9.695 12.975a34.699 34.699 0 0 0-1.357 9.59v3.422a17.855 17.855 0 0 0-4.62 6.843H6.538l-.293.345C6.118 52.842 5 54.238 5 56.999c0 2.854 1.2 3.816 1.44 3.98l.249.17h2.867c1.281 8.777 8.836 15.288 17.93 15.288 1.303 0 2.576-.157 3.812-.425.074.537.117 1.083.117 1.635 0 4.758 2.428 8.959 6.108 11.433.844 2.847 3.487 4.942 6.599 4.942h11.766c3.11 0 5.752-2.092 6.598-4.937 3.681-2.473 6.11-6.676 6.11-11.437 0-.483.035-.96.092-1.432.891.135 1.796.221 2.72.221 9.094 0 16.65-6.512 17.93-15.288h3.112l.228-.027c.094-.023 2.322-.599 2.322-4.294 0-3.236-2.011-4.325-2.097-4.369zM66.496 70.823a13.418 13.418 0 0 1-3.423-1.96v-3.921c.083.002.164.013.248.013 4.675 0 7.251-3.987 8.494-8.494.629-2.282 3.015-6.303 5.29-9.82a13.27 13.27 0 0 1 4.099 2.951c-.112 6.121-3.467 11.801-8.825 14.881-2.571 1.479-4.596 3.711-5.883 6.35zm14.718-27.272a18.36 18.36 0 0 0-1.481-.85c.59-.859 1.093-1.577 1.446-2.076.022.484.036.969.036 1.457v1.469zM59.402 57c0-2.025 1.647-3.672 3.672-3.672s3.672 1.647 3.672 3.672c0 2.025-1.647 3.672-3.672 3.672S59.402 59.025 59.402 57zm12.029-43.93c1.918-2.45 4.895-4.032 8.241-4.032 5.778 0 10.479 4.701 10.479 10.479a1.224 1.224 0 1 1-2.443-.111c.196-2.214-.429-4.439-2.196-5.786-4.64-3.538-9.608-2.294-12.153.943-.421.536-1.183.647-1.714.218l-.025-.02a1.214 1.214 0 0 1-.189-1.691zm-21.425-2.196c2.213 0 4.398.239 6.504.696a8.388 8.388 0 0 0-1.682 5.044v34.793c-.088.199-.185.394-.266.598-1.159-.462-3.176-1.093-5.416-1.03-1.506.045-2.917.396-3.974.745V16.613a8.387 8.387 0 0 0-1.682-5.043 31.454 31.454 0 0 1 6.516-.696zm-22.36 53.6c-5.458-3.143-8.848-8.966-8.848-15.196v-.725a13.33 13.33 0 0 1 3.859-2.277c2.344 3.601 4.876 7.825 5.527 10.186 1.243 4.507 3.818 8.494 8.494 8.494.084 0 .165-.01.248-.013v2.952a13.374 13.374 0 0 1-3.614 2.532c-1.29-2.463-3.23-4.548-5.666-5.953zm9.28-11.145a3.676 3.676 0 0 1 3.672 3.672 3.676 3.676 0 0 1-3.672 3.672 3.676 3.676 0 0 1-3.672-3.672 3.677 3.677 0 0 1 3.672-3.672zM14.491 13.617c-1.769 1.348-2.394 3.574-2.199 5.789a1.224 1.224 0 1 1-2.443.111c0-5.778 4.701-10.479 10.479-10.479 3.349 0 6.329 1.585 8.247 4.039a1.214 1.214 0 0 1-.185 1.686l-.024.02c-.531.434-1.298.324-1.721-.215-2.543-3.241-7.514-4.488-12.154-.951zm4.307 28.465c0-.474.03-.945.051-1.417.293.415.69.983 1.145 1.641-.407.182-.805.379-1.196.589v-.813zm8.689 29.66c-6.813 0-12.53-5.023-13.295-11.684a12.797 12.797 0 0 1-.093-1.491 12.88 12.88 0 0 1 1.346-5.727 21.335 21.335 0 0 0 10.366 14.811c1.63.941 2.954 2.298 3.914 3.897-.73.122-1.475.194-2.238.194zm37.438 5.917c0 2.37-.827 4.548-2.202 6.272-.396-3.416-3.316-6.092-6.834-6.092H44.123c-3.516 0-6.434 2.672-6.833 6.085a10.038 10.038 0 0 1-2.202-6.277c0-.947-.091-1.879-.255-2.79a18.347 18.347 0 0 0 2.708-1.491c.726 1.188 2.023 1.993 3.509 1.993a4.135 4.135 0 0 0 4.123-4.123v-8.943c.073-.334.153-.666.206-1.007l.013-.083-.011-.217c.048-1.709 1.848-3.087 4.054-3.087 2.122 0 3.89 1.301 4.031 3.013a17.515 17.515 0 0 0 1.363 4.806v5.519a4.135 4.135 0 0 0 4.123 4.123c1.262 0 2.383-.587 3.14-1.488a18.227 18.227 0 0 0 3.017 1.436c-.117.77-.184 1.555-.184 2.351zm19.778-17.601c-.766 6.661-6.482 11.684-13.295 11.684-.408 0-.811-.02-1.21-.056.965-1.661 2.325-3.066 4.002-4.034a21.31 21.31 0 0 0 9.976-12.989c.405 1.27.619 2.578.619 3.905.001.462-.029.95-.092 1.49z"></path></g><!----></svg>